<svg width="668.61669921875px" height="154.4px" xmlns="http://www.w3.org/2000/svg" viewBox="-84.308349609375 -2.200000000000003 668.61669921875 154.4" style="background: rgba(0, 0, 0, 0);" preserveAspectRatio="xMidYMid"><defs><linearGradient id="editing-gradow-gradient" x1="0" x2="1" y1="0.5" y2="0.5" gradientUnits="objectBoundingBox"><stop offset="0" stop-color="#070007"></stop><stop offset="1" stop-color="#000000"></stop></linearGradient><filter id="editing-gradow-filter" x="-100%" y="-100%" width="300%" height="300%"><feFlood flood-color="rgba(89.30952380952381%,82.25877192982462%,0%,0)" result="flood"></feFlood><feComposite operator="in" in2="SourceAlpha" in="flood" result="shadow"></feComposite><feOffset dx="-50" dy="-28" in="SourceGraphic" result="offset-1"></feOffset><feOffset dx="50" dy="28" in="shadow" result="offset-2"></feOffset><feMerge><feMergeNode in="offset-2"></feMergeNode><feMergeNode in="offset-1"></feMergeNode></feMerge></filter></defs><g filter="url(#editing-gradow-filter)"><g transform="translate(17.70050287246704, 106.68000221252441)"><path d="M55.30-47.49L55.30-47.49L55.30-47.49Q51.97-42.69 47.87-35.33L47.87-35.33L47.87-35.33Q43.78-27.97 41.34-22.98L41.34-22.98L38.91-17.98L38.91-17.98Q32.32-4.29 32.32 1.66L32.32 1.66L32.32 1.66Q32.32 1.79 32.35 2.18L32.35 2.18L32.35 2.18Q32.38 2.56 32.38 2.82L32.38 2.82L32.38 2.82Q32.38 3.84 31.81 3.84L31.81 3.84L31.81 3.84Q30.72 3.84 29.44 1.95L29.44 1.95L29.44 1.95Q28.16 0.06 28.16-3.07L28.16-3.07L28.16-3.07Q28.16-5.95 29.54-10.11L29.54-10.11L29.54-10.11Q30.91-14.27 33.60-19.62L33.60-19.62L33.60-19.62Q36.29-24.96 38.11-28.22L38.11-28.22L38.11-28.22Q39.94-31.49 42.94-36.74L42.94-36.74L42.94-36.74Q43.14-37.12 43.14-37.31L43.14-37.31L43.14-37.31Q43.01-37.63 42.82-37.63L42.82-37.63L42.82-37.63Q42.43-37.63 42.05-37.31L42.05-37.31L42.05-37.31Q38.27-34.24 32.13-26.88L32.13-26.88L32.13-26.88Q25.98-19.52 21.76-13.70L21.76-13.70L17.47-7.87L17.47-7.87Q16.45-6.34 15.81-6.34L15.81-6.34L15.81-6.34Q15.62-6.34 15.49-6.46L15.49-6.46L15.49-6.46Q15.36-6.59 15.30-6.82L15.30-6.82L15.30-6.82Q15.23-7.04 15.20-7.23L15.20-7.23L15.20-7.23Q15.17-7.42 15.17-7.55L15.17-7.55L15.17-7.68L15.17-7.68Q15.62-11.65 16.48-18.75L16.48-18.75L16.48-18.75Q17.34-25.86 17.92-30.72L17.92-30.72L17.92-30.72Q18.50-35.58 18.50-35.71L18.50-35.71L18.50-35.71Q18.50-36.35 18.24-36.35L18.24-36.35L18.24-36.35Q18.11-36.35 17.89-36.16L17.89-36.16L17.89-36.16Q17.66-35.97 17.54-35.78L17.54-35.78L17.41-35.58L17.41-35.58Q14.66-31.49 11.52-24.99L11.52-24.99L11.52-24.99Q8.38-18.50 6.46-13.50L6.46-13.50L6.46-13.50Q5.06-9.92 3.58-6.94L3.58-6.94L3.58-6.94Q2.11-3.97 0.99-2.34L0.99-2.34L0.99-2.34Q-0.13-0.70-1.06 0.42L-1.06 0.42L-1.06 0.42Q-1.98 1.54-2.50 1.92L-2.50 1.92L-3.01 2.30L-3.01 2.30Q-3.71 2.88-4.10 2.88L-4.10 2.88L-4.10 2.88Q-4.48 2.88-4.48 2.24L-4.48 2.24L-4.42 1.66L-4.42 1.66Q-3.78-1.73 1.18-11.26L1.18-11.26L1.18-11.26Q6.14-20.80 10.82-28.67L10.82-28.67L15.49-36.48L19.01-42.56L19.01-42.56Q21.63-50.05 23.04-50.05L23.04-50.05L23.04-50.05Q24-50.05 24-46.78L24-46.78L24-46.78Q22.02-22.98 22.02-19.58L22.02-19.58L22.02-19.58Q22.02-18.62 22.40-18.62L22.40-18.62L22.40-18.62Q22.78-18.62 23.30-19.33L23.30-19.33L23.30-19.33Q24.13-20.42 25.60-22.27L25.60-22.27L25.60-22.27Q27.07-24.13 31.23-28.93L31.23-28.93L31.23-28.93Q35.39-33.73 39.07-37.57L39.07-37.57L39.07-37.57Q42.75-41.41 47.10-44.93L47.10-44.93L47.10-44.93Q51.46-48.45 54.27-49.22L54.27-49.22L54.27-49.22Q54.91-49.34 55.10-49.34L55.10-49.34L55.10-49.34Q55.87-49.34 55.87-48.77L55.87-48.77L55.87-48.77Q55.87-48.26 55.30-47.49ZM56.96-4.03L56.96-4.03L56.96-4.03Q51.65 0.83 49.66 0.83L49.66 0.83L49.66 0.83Q48.77 0.83 48.77-0.19L48.77-0.19L48.77-0.19Q48.77-1.47 49.89-4.10L49.89-4.10L49.89-4.10Q51.01-6.72 52.16-8.70L52.16-8.70L53.31-10.69L53.31-10.69Q53.57-11.14 53.57-11.26L53.57-11.26L53.57-11.26Q53.57-11.39 53.44-11.39L53.44-11.39L53.44-11.39Q53.18-11.39 52.48-10.69L52.48-10.69L52.48-10.69Q50.56-8.58 48.10-6.18L48.10-6.18L48.10-6.18Q45.63-3.78 44.10-2.43L44.10-2.43L42.62-1.15L42.62-1.15Q40.13 0.77 38.78 0.77L38.78 0.77L38.78 0.77Q37.38 0.77 37.38-1.41L37.38-1.41L37.38-1.41Q37.38-2.50 37.98-4.74L37.98-4.74L37.98-4.74Q38.59-6.98 38.91-7.74L38.91-7.74L38.91-7.74Q40.38-11.33 42.59-14.72L42.59-14.72L42.59-14.72Q44.80-18.11 47.81-21.22L47.81-21.22L47.81-21.22Q50.82-24.32 54.82-26.24L54.82-26.24L54.82-26.24Q58.82-28.16 63.10-28.16L63.10-28.16L63.10-28.16Q66.69-28.16 66.69-27.07L66.69-27.07L66.69-27.07Q66.69-26.43 65.09-26.43L65.09-26.43L65.09-26.43Q59.20-26.43 54.05-21.41L54.05-21.41L54.05-21.41Q48.90-16.38 45.70-9.86L45.70-9.86L45.70-9.86Q44.80-8.06 44.80-6.85L44.80-6.85L44.80-6.85Q44.80-6.14 45.25-6.14L45.25-6.14L45.25-6.14Q46.02-6.14 47.23-7.23L47.23-7.23L47.23-7.23Q48-7.94 49.31-9.09L49.31-9.09L49.31-9.09Q50.62-10.24 53.57-13.50L53.57-13.50L53.57-13.50Q56.51-16.77 58.24-19.58L58.24-19.58L58.24-19.58Q58.50-20.10 59.04-20.80L59.04-20.80L59.04-20.80Q59.58-21.50 61.12-22.69L61.12-22.69L61.12-22.69Q62.66-23.87 64.19-23.87L64.19-23.87L64.19-23.87Q65.02-23.87 65.02-23.42L65.02-23.42L65.02-23.42Q65.02-23.30 64.83-22.98L64.83-22.98L64.83-22.98Q64.58-22.46 63.39-20.42L63.39-20.42L63.39-20.42Q62.21-18.37 61.18-16.54L61.18-16.54L61.18-16.54Q60.16-14.72 59.01-12.58L59.01-12.58L59.01-12.58Q57.86-10.43 57.18-8.90L57.18-8.90L57.18-8.90Q56.51-7.36 56.51-6.85L56.51-6.85L56.51-6.85Q56.51-6.46 56.83-6.46L56.83-6.46L56.83-6.46Q57.79-6.46 61.50-10.18L61.50-10.18L61.50-10.18Q64.32-13.12 68.10-17.41L68.10-17.41L68.10-17.41Q68.29-17.60 68.42-17.60L68.42-17.60L68.42-17.60Q68.54-17.60 68.54-17.34L68.54-17.34L68.54-17.34Q68.54-16.13 67.58-14.98L67.58-14.98L67.58-14.98Q61.31-8 56.96-4.03ZM85.06-9.66L85.06-9.66L85.06-9.66Q87.74-12.35 92.16-17.41L92.16-17.41L92.16-17.41Q92.35-17.60 92.48-17.60L92.48-17.60L92.48-17.60Q92.61-17.60 92.61-17.34L92.61-17.34L92.61-17.34Q92.61-16.13 91.65-14.98L91.65-14.98L91.65-14.98Q86.91-9.73 83.26-6.21L83.26-6.21L83.26-6.21Q75.58 0.90 73.15 0.90L73.15 0.90L73.15 0.90Q72.19 0.90 72.19-0.32L72.19-0.32L72.19-0.32Q72.19-2.62 74.82-7.33L74.82-7.33L74.82-7.33Q77.44-12.03 80.03-16.10L80.03-16.10L80.03-16.10Q82.62-20.16 82.62-20.86L82.62-20.86L82.62-20.86Q82.62-21.25 82.24-21.25L82.24-21.25L82.24-21.25Q80.70-21.25 76.42-16.51L76.42-16.51L76.42-16.51Q72.13-11.78 69.18-8L69.18-8L69.18-8Q65.92-3.90 63.52-1.47L63.52-1.47L63.52-1.47Q61.12 0.96 60.35 1.28L60.35 1.28L59.52 1.66L59.52 1.66Q58.94 1.66 58.94 1.02L58.94 1.02L58.94 1.02Q58.94 0 60.10-2.62L60.10-2.62L60.10-2.62Q61.25-5.25 62.40-7.36L62.40-7.36L63.55-9.47L73.54-27.39L73.54-27.39Q85.31-48.19 92.10-56.96L92.10-56.96L92.10-56.96Q94.02-59.52 94.78-59.52L94.78-59.52L94.78-59.52Q95.17-59.52 95.17-59.01L95.17-59.01L95.17-59.01Q95.17-57.66 93.12-53.50L93.12-53.50L93.12-53.50Q83.07-35.39 79.17-28.42L79.17-28.42L79.17-28.42Q76.80-24.19 74.88-20.90L74.88-20.90L74.88-20.90Q72.96-17.60 72.16-16.26L72.16-16.26L72.16-16.26Q71.36-14.91 70.78-13.92L70.78-13.92L70.78-13.92Q70.21-12.93 69.89-12.22L69.89-12.22L69.89-12.22Q69.82-12.03 69.82-11.84L69.82-11.84L69.82-11.84Q69.82-11.52 69.95-11.52L69.95-11.52L69.95-11.52Q70.08-11.52 70.46-11.90L70.46-11.90L70.46-11.90Q84.80-27.84 89.28-27.84L89.28-27.84L89.28-27.84Q90.18-27.84 90.18-26.94L90.18-26.94L90.18-26.94Q90.18-26.69 89.92-25.82L89.92-25.82L89.92-25.82Q89.66-24.96 88.45-22.34L88.45-22.34L88.45-22.34Q87.23-19.71 85.25-16.51L85.25-16.51L85.25-16.51Q84.03-14.72 82.18-11.39L82.18-11.39L82.18-11.39Q80.32-8.06 80.32-7.04L80.32-7.04L80.32-7.04Q80.32-6.46 80.90-6.46L80.90-6.46L80.90-6.46Q81.09-6.46 81.44-6.62L81.44-6.62L81.44-6.62Q81.79-6.78 82.24-7.17L82.24-7.17L82.24-7.17Q82.69-7.55 83.04-7.87L83.04-7.87L83.04-7.87Q83.39-8.19 84.06-8.80L84.06-8.80L84.06-8.80Q84.74-9.41 85.06-9.66ZM122.18-9.66L122.18-9.66L122.18-9.66Q124.86-12.35 129.28-17.41L129.28-17.41L129.28-17.41Q129.47-17.60 129.60-17.60L129.60-17.60L129.60-17.60Q129.73-17.60 129.73-17.34L129.73-17.34L129.73-17.34Q129.73-16.13 128.77-14.98L128.77-14.98L128.77-14.98Q124.03-9.73 120.38-6.21L120.38-6.21L120.38-6.21Q112.83 0.83 110.46 0.83L110.46 0.83L110.46 0.83Q109.44 0.83 109.44-0.38L109.44-0.38L109.44-0.38Q109.44-1.60 110.75-4.42L110.75-4.42L110.75-4.42Q112.06-7.23 113.38-9.54L113.38-9.54L113.38-9.54Q114.69-11.84 116.70-15.17L116.70-15.17L116.70-15.17Q118.72-18.50 118.85-18.75L118.85-18.75L118.85-18.75Q120-20.61 120-21.12L120-21.12L120-21.12Q120-21.44 119.68-21.44L119.68-21.44L118.78-21.12L118.78-21.12Q115.84-19.01 111.74-14.56L111.74-14.56L111.74-14.56Q107.65-10.11 105.02-6.78L105.02-6.78L102.40-3.39L102.40-3.39Q99.46 0.83 96.64 0.83L96.64 0.83L96.64 0.83Q95.81 0.83 95.81 0.32L95.81 0.32L95.81 0.32Q95.81-0.26 97.02-2.72L97.02-2.72L97.02-2.72Q98.24-5.18 99.46-7.36L99.46-7.36L100.67-9.54L100.67-9.54Q101.12-10.43 102.88-13.41L102.88-13.41L102.88-13.41Q104.64-16.38 105.82-18.53L105.82-18.53L105.82-18.53Q107.01-20.67 107.01-21.18L107.01-21.18L107.01-21.18Q107.01-21.50 106.75-21.50L106.75-21.50L105.86-21.12L105.86-21.12Q102.85-19.01 98.75-14.56L98.75-14.56L98.75-14.56Q94.66-10.11 92.10-6.78L92.10-6.78L89.47-3.39L89.47-3.39Q86.46 0.77 83.71 0.77L83.71 0.77L83.71 0.77Q82.88 0.77 82.88 0.32L82.88 0.32L82.88 0.32Q82.88-0.26 84.10-2.72L84.10-2.72L84.10-2.72Q85.31-5.18 86.53-7.36L86.53-7.36L87.74-9.54L93.95-20.54L93.95-20.54Q95.49-23.42 97.66-25.70L97.66-25.70L97.66-25.70Q99.84-27.97 102.21-27.97L102.21-27.97L102.21-27.97Q102.72-27.97 102.72-27.52L102.72-27.52L102.72-27.52Q102.72-27.14 101.98-25.89L101.98-25.89L101.98-25.89Q101.25-24.64 99.87-22.43L99.87-22.43L99.87-22.43Q98.50-20.22 97.54-18.37L97.54-18.37L97.54-18.37Q96.96-17.28 96.16-15.90L96.16-15.90L96.16-15.90Q95.36-14.53 94.85-13.60L94.85-13.60L94.85-13.60Q94.34-12.67 94.14-12.29L94.14-12.29L94.14-12.29Q93.95-11.90 93.95-11.71L93.95-11.71L93.95-11.71Q93.95-11.58 94.08-11.58L94.08-11.58L94.08-11.58Q94.27-11.58 94.72-12.03L94.72-12.03L94.72-12.03Q95.94-13.44 97.89-15.55L97.89-15.55L97.89-15.55Q99.84-17.66 104.51-21.92L104.51-21.92L104.51-21.92Q109.18-26.18 112.19-27.65L112.19-27.65L112.19-27.65Q112.83-27.97 113.47-27.97L113.47-27.97L113.47-27.97Q114.37-27.97 114.37-27.07L114.37-27.07L114.37-27.07Q114.37-25.41 110.59-18.43L110.59-18.43L110.59-18.43Q110.27-17.86 109.28-16.19L109.28-16.19L109.28-16.19Q108.29-14.53 107.62-13.31L107.62-13.31L107.62-13.31Q106.94-12.10 106.94-11.78L106.94-11.78L106.94-11.78Q106.94-11.58 107.07-11.58L107.07-11.58L107.07-11.58Q107.26-11.58 107.71-12.03L107.71-12.03L107.71-12.03Q108.93-13.44 110.88-15.55L110.88-15.55L110.88-15.55Q112.83-17.66 117.47-21.92L117.47-21.92L117.47-21.92Q122.11-26.18 125.12-27.65L125.12-27.65L125.12-27.65Q125.89-27.97 126.46-27.97L126.46-27.97L126.46-27.97Q127.42-27.97 127.42-27.07L127.42-27.07L127.42-27.07Q127.42-26.82 127.17-25.95L127.17-25.95L127.17-25.95Q126.91-25.09 125.70-22.43L125.70-22.43L125.70-22.43Q124.48-19.78 122.50-16.58L122.50-16.58L122.50-16.58Q117.63-9.09 117.63-7.17L117.63-7.17L117.63-7.17Q117.63-6.59 118.02-6.59L118.02-6.59L118.02-6.59Q119.10-6.59 122.18-9.66ZM136.51-8.51L137.66-10.69L139.65-14.08L139.65-14.08Q139.65-14.27 139.52-14.27L139.52-14.27L139.52-14.27Q139.39-14.27 139.20-14.08L139.20-14.08L139.20-14.08Q136.83-11.33 134.27-8.74L134.27-8.74L134.27-8.74Q131.71-6.14 130.37-4.93L130.37-4.93L128.96-3.71L128.96-3.71Q123.97 1.02 122.05 1.02L122.05 1.02L122.05 1.02Q121.15 1.02 121.15-0.13L121.15-0.13L121.15-0.13Q121.15-1.41 122.21-4.03L122.21-4.03L122.21-4.03Q123.26-6.66 124.35-8.70L124.35-8.70L125.38-10.69L125.38-10.69Q130.75-20.74 133.31-24.13L133.31-24.13L133.31-24.13Q134.59-25.79 136.45-26.91L136.45-26.91L136.45-26.91Q138.30-28.03 139.33-28.03L139.33-28.03L139.33-28.03Q139.97-28.03 139.97-27.58L139.97-27.58L139.97-27.58Q139.97-27.33 139.71-26.88L139.71-26.88L139.71-26.88Q139.58-26.62 137.09-22.62L137.09-22.62L137.09-22.62Q134.59-18.62 133.06-15.74L133.06-15.74L133.06-15.74Q128.83-8 128.83-6.85L128.83-6.85L128.83-6.85Q128.83-6.40 129.22-6.40L129.22-6.40L129.22-6.40Q129.79-6.40 131.20-7.55L131.20-7.55L131.20-7.55Q135.36-11.14 140.35-17.22L140.35-17.22L140.35-17.22Q143.10-20.16 146.11-24.90L146.11-24.90L146.11-24.90Q148.16-28.03 151.55-28.03L151.55-28.03L151.55-28.03Q152.13-28.03 152.13-27.52L152.13-27.52L151.62-26.30L151.62-26.30Q150.72-24.70 147.62-19.30L147.62-19.30L147.62-19.30Q144.51-13.89 144.06-13.12L144.06-13.12L144.06-13.12Q141.44-8.51 141.44-7.04L141.44-7.04L141.44-7.04Q141.44-6.46 141.82-6.46L141.82-6.46L141.82-6.46Q142.46-6.46 145.92-9.66L145.92-9.66L145.92-9.66Q148.61-12.35 153.02-17.41L153.02-17.41L153.02-17.41Q153.22-17.60 153.34-17.60L153.34-17.60L153.34-17.60Q153.47-17.60 153.47-17.34L153.47-17.34L153.47-17.34Q153.47-16.13 152.51-14.98L152.51-14.98L152.51-14.98Q147.78-9.73 144.13-6.21L144.13-6.21L144.13-6.21Q141.63-3.84 138.53-1.47L138.53-1.47L138.53-1.47Q135.42 0.90 134.02 0.90L134.02 0.90L134.02 0.90Q133.06 0.90 133.06-0.45L133.06-0.45L133.06-0.45Q133.06-1.22 134.21-3.78L134.21-3.78L134.21-3.78Q135.36-6.34 136.51-8.51L136.51-8.51ZM155.52-6.85L155.52-6.85L155.52-6.85Q155.90-7.17 156.58-7.78L156.58-7.78L156.58-7.78Q157.25-8.38 159.17-10.34L159.17-10.34L159.17-10.34Q161.09-12.29 162.85-14.37L162.85-14.37L162.85-14.37Q164.61-16.45 166.75-19.52L166.75-19.52L166.75-19.52Q168.90-22.59 170.43-25.60L170.43-25.60L170.43-25.60Q170.50-25.73 170.50-25.86L170.50-25.86L170.43-26.05L170.43-26.05Q169.98-26.30 169.41-26.30L169.41-26.30L169.41-26.30Q166.66-26.30 162.59-22.21L162.59-22.21L162.59-22.21Q158.53-18.11 155.68-13.41L155.68-13.41L155.68-13.41Q152.83-8.70 152.83-6.66L152.83-6.66L152.83-6.66Q152.83-5.76 153.54-5.76L153.54-5.76L153.54-5.76Q154.30-5.76 155.52-6.85ZM169.66-9.66L169.66-9.66L169.66-9.66Q172.35-12.35 176.77-17.41L176.77-17.41L176.77-17.41Q176.96-17.60 177.09-17.60L177.09-17.60L177.09-17.60Q177.22-17.60 177.22-17.34L177.22-17.34L177.22-17.34Q177.22-16.13 176.26-14.98L176.26-14.98L176.26-14.98Q171.52-9.73 167.87-6.21L167.87-6.21L167.87-6.21Q160.32 0.83 157.95 0.83L157.95 0.83L157.95 0.83Q157.06 0.83 157.06-0.13L157.06-0.13L157.06-0.13Q157.06-1.34 158.27-3.97L158.27-3.97L158.27-3.97Q159.49-6.59 160.77-8.64L160.77-8.64L161.98-10.69L161.98-10.69Q162.24-11.01 162.24-11.26L162.24-11.26L162.24-11.26Q162.24-11.39 162.11-11.39L162.11-11.39L162.11-11.39Q161.86-11.39 161.41-10.94L161.41-10.94L161.41-10.94Q159.42-8.64 156.86-6.21L156.86-6.21L156.86-6.21Q154.30-3.78 152.70-2.43L152.70-2.43L151.17-1.15L151.17-1.15Q148.61 0.83 147.33 0.83L147.33 0.83L147.07 0.77L147.07 0.77Q145.98 0.70 145.98-1.15L145.98-1.15L145.98-1.15Q145.98-6.02 149.41-12.26L149.41-12.26L149.41-12.26Q152.83-18.50 158.27-23.10L158.27-23.10L158.27-23.10Q163.71-27.71 168.77-27.71L168.77-27.71L168.77-27.71Q169.28-27.71 169.73-27.62L169.73-27.62L169.73-27.62Q170.18-27.52 170.40-27.46L170.40-27.46L170.40-27.46Q170.62-27.39 170.82-27.26L170.82-27.26L171.01-27.20L171.01-27.20Q171.14-27.20 171.33-27.39L171.33-27.39L171.33-27.39Q183.17-48.77 189.50-56.90L189.50-56.90L189.50-56.90Q191.42-59.46 192.26-59.46L192.26-59.46L192.26-59.46Q192.58-59.46 192.58-58.94L192.58-58.94L192.58-58.94Q192.58-57.60 190.53-53.44L190.53-53.44L190.53-53.44Q180.67-35.39 176.70-28.42L176.70-28.42L176.70-28.42Q169.60-15.74 168.06-13.18L168.06-13.18L168.06-13.18Q164.93-7.81 164.93-6.66L164.93-6.66L164.93-6.66Q164.93-6.21 165.31-6.21L165.31-6.21L165.31-6.21Q165.63-6.21 166.05-6.43L166.05-6.43L166.05-6.43Q166.46-6.66 166.98-7.10L166.98-7.10L166.98-7.10Q167.49-7.55 167.90-7.94L167.90-7.94L167.90-7.94Q168.32-8.32 168.90-8.90L168.90-8.90L168.90-8.90Q169.47-9.47 169.66-9.66ZM184-8.51L185.15-10.69L187.14-14.08L187.14-14.08Q187.14-14.27 187.01-14.27L187.01-14.27L187.01-14.27Q186.88-14.27 186.69-14.08L186.69-14.08L186.69-14.08Q184.32-11.33 181.76-8.74L181.76-8.74L181.76-8.74Q179.20-6.14 177.86-4.93L177.86-4.93L176.45-3.71L176.45-3.71Q171.46 1.02 169.54 1.02L169.54 1.02L169.54 1.02Q168.64 1.02 168.64-0.13L168.64-0.13L168.64-0.13Q168.64-1.41 169.70-4.03L169.70-4.03L169.70-4.03Q170.75-6.66 171.84-8.70L171.84-8.70L172.86-10.69L172.86-10.69Q178.24-20.74 180.80-24.13L180.80-24.13L180.80-24.13Q182.08-25.79 183.94-26.91L183.94-26.91L183.94-26.91Q185.79-28.03 186.82-28.03L186.82-28.03L186.82-28.03Q187.46-28.03 187.46-27.58L187.46-27.58L187.46-27.58Q187.46-27.33 187.20-26.88L187.20-26.88L187.20-26.88Q187.07-26.62 184.58-22.62L184.58-22.62L184.58-22.62Q182.08-18.62 180.54-15.74L180.54-15.74L180.54-15.74Q176.32-8 176.32-6.85L176.32-6.85L176.32-6.85Q176.32-6.40 176.70-6.40L176.70-6.40L176.70-6.40Q177.28-6.40 178.69-7.55L178.69-7.55L178.69-7.55Q182.85-11.14 187.84-17.22L187.84-17.22L187.84-17.22Q190.59-20.16 193.60-24.90L193.60-24.90L193.60-24.90Q195.65-28.03 199.04-28.03L199.04-28.03L199.04-28.03Q199.62-28.03 199.62-27.52L199.62-27.52L199.10-26.30L199.10-26.30Q198.21-24.70 195.10-19.30L195.10-19.30L195.10-19.30Q192-13.89 191.55-13.12L191.55-13.12L191.55-13.12Q188.93-8.51 188.93-7.04L188.93-7.04L188.93-7.04Q188.93-6.46 189.31-6.46L189.31-6.46L189.31-6.46Q189.95-6.46 193.41-9.66L193.41-9.66L193.41-9.66Q196.10-12.35 200.51-17.41L200.51-17.41L200.51-17.41Q200.70-17.60 200.83-17.60L200.83-17.60L200.83-17.60Q200.96-17.60 200.96-17.34L200.96-17.34L200.96-17.34Q200.96-16.13 200-14.98L200-14.98L200-14.98Q195.26-9.73 191.62-6.21L191.62-6.21L191.62-6.21Q189.12-3.84 186.02-1.47L186.02-1.47L186.02-1.47Q182.91 0.90 181.50 0.90L181.50 0.90L181.50 0.90Q180.54 0.90 180.54-0.45L180.54-0.45L180.54-0.45Q180.54-1.22 181.70-3.78L181.70-3.78L181.70-3.78Q182.85-6.34 184-8.51L184-8.51ZM213.06-31.17L213.06-31.17L213.06-31.17Q217.60-34.37 221.22-38.43L221.22-38.43L221.22-38.43Q224.83-42.50 226.72-45.92L226.72-45.92L226.72-45.92Q228.61-49.34 229.57-51.84L229.57-51.84L229.57-51.84Q230.53-54.34 230.53-55.42L230.53-55.42L230.53-55.42Q230.53-56.06 230.08-56.06L230.08-56.06L230.08-56.06Q229.18-56.06 227.90-54.78L227.90-54.78L227.90-54.78Q225.47-52.35 222.40-47.74L222.40-47.74L222.40-47.74Q219.33-43.14 217.44-39.84L217.44-39.84L217.44-39.84Q215.55-36.54 212.54-31.04L212.54-31.04L212.54-31.04Q212.80-31.04 213.06-31.17ZM206.21-9.66L206.21-9.66L206.21-9.66Q208.90-12.35 213.31-17.41L213.31-17.41L213.31-17.41Q213.50-17.60 213.63-17.60L213.63-17.60L213.63-17.60Q213.76-17.60 213.76-17.34L213.76-17.34L213.76-17.34Q213.76-16.13 212.80-14.98L212.80-14.98L212.80-14.98Q208.06-9.73 204.42-6.21L204.42-6.21L204.42-6.21Q196.42 1.34 194.24 1.34L194.24 1.34L194.24 1.34Q193.28 1.34 193.28 0L193.28 0L193.28 0Q193.28-0.70 193.44-1.54L193.44-1.54L193.44-1.54Q193.60-2.37 193.98-3.36L193.98-3.36L193.98-3.36Q194.37-4.35 194.66-5.02L194.66-5.02L194.66-5.02Q194.94-5.70 195.49-6.94L195.49-6.94L195.49-6.94Q196.03-8.19 196.22-8.64L196.22-8.64L196.22-8.64Q198.02-12.67 207.23-29.89L207.23-29.89L207.23-29.89Q219.84-52.86 230.40-58.11L230.40-58.11L230.40-58.11Q231.94-58.88 233.47-58.88L233.47-58.88L233.47-58.88Q235.26-58.88 235.26-57.22L235.26-57.22L235.26-57.22Q235.26-53.38 232.64-48.80L232.64-48.80L232.64-48.80Q230.02-44.22 226.24-40.38L226.24-40.38L226.24-40.38Q222.46-36.54 218.85-33.66L218.85-33.66L218.85-33.66Q215.23-30.78 212.61-29.31L212.61-29.31L212.61-29.31Q212.22-29.18 211.90-28.74L211.90-28.74L211.90-28.74Q209.09-24.19 206.40-18.98L206.40-18.98L206.40-18.98Q203.71-13.76 202.37-10.75L202.37-10.75L201.09-7.81L201.09-7.81Q200.77-6.85 200.77-6.53L200.77-6.53L200.77-6.53Q200.77-5.95 201.22-5.95L201.22-5.95L201.22-5.95Q202.50-5.95 206.21-9.66ZM272.83-47.87L272.83-47.87L272.83-47.87Q268.22-43.71 261.86-33.54L261.86-33.54L261.86-33.54Q255.49-23.36 251.81-16.13L251.81-16.13L251.81-16.13Q248.13-8.90 245.95-4.16L245.95-4.16L245.95-4.16Q242.94 2.56 241.41 2.56L241.41 2.56L241.41 2.56Q240.38 2.56 240.38-0.26L240.38-0.26L240.38-0.26Q240.38-2.30 241.22-5.18L241.22-5.18L241.22-5.18Q242.05-8.06 242.94-9.92L242.94-9.92L243.78-11.78L243.78-11.78Q245.95-16.32 245.95-21.44L245.95-21.44L245.95-21.44Q245.95-28.42 242.50-33.28L242.50-33.28L242.50-33.28Q236.29-20.22 228.93-8.32L228.93-8.32L228.93-8.32Q228.22-7.17 227.33-5.82L227.33-5.82L227.33-5.82Q226.43-4.48 224.90-2.40L224.90-2.40L224.90-2.40Q223.36-0.32 221.89 1.02L221.89 1.02L221.89 1.02Q220.42 2.37 219.39 2.37L219.39 2.37L219.39 2.37Q218.82 2.37 218.82 1.66L218.82 1.66L218.88 1.09L218.88 1.09Q219.14-1.34 226.94-15.04L226.94-15.04L239.10-36.54L239.10-36.54Q236.67-38.08 233.66-38.08L233.66-38.08L233.66-38.08Q230.72-38.08 229.02-36.29L229.02-36.29L229.02-36.29Q227.33-34.50 227.33-31.49L227.33-31.49L227.33-31.49Q227.33-30.21 227.65-29.06L227.65-29.06L227.65-29.06Q227.84-28.48 227.84-28.16L227.84-28.16L227.84-28.16Q227.84-27.58 227.39-27.58L227.39-27.58L227.39-27.58Q226.30-27.58 224.90-30.34L224.90-30.34L224.90-30.34Q223.49-33.09 223.49-35.01L223.49-35.01L223.49-35.01Q223.49-37.70 225.38-39.20L225.38-39.20L225.38-39.20Q227.26-40.70 230.40-40.70L230.40-40.70L230.40-40.70Q235.78-40.70 239.94-37.95L239.94-37.95L246.27-49.15L246.27-49.15Q246.91-49.79 247.30-49.79L247.30-49.79L247.30-49.79Q247.94-49.79 247.94-48.64L247.94-48.64L247.94-48.64Q247.94-45.25 243.26-35.01L243.26-35.01L243.26-35.01Q248.06-29.31 248.06-19.97L248.06-19.97L248.06-19.97Q248.19-19.33 248.38-19.33L248.38-19.33L248.38-19.33Q248.58-19.33 248.77-19.84L248.77-19.84L248.77-19.84Q252.61-26.82 255.36-32.38L255.36-32.38L255.36-32.38Q259.07-39.87 263.52-44.58L263.52-44.58L263.52-44.58Q267.97-49.28 272.51-49.28L272.51-49.28L272.51-49.28Q273.47-49.28 273.47-48.90L273.47-48.90L273.47-48.90Q273.47-48.70 272.83-47.87ZM270.59-4.03L270.59-4.03L270.59-4.03Q265.28 0.83 263.30 0.83L263.30 0.83L263.30 0.83Q262.40 0.83 262.40-0.19L262.40-0.19L262.40-0.19Q262.40-1.47 263.52-4.10L263.52-4.10L263.52-4.10Q264.64-6.72 265.79-8.70L265.79-8.70L266.94-10.69L266.94-10.69Q267.20-11.14 267.20-11.26L267.20-11.26L267.20-11.26Q267.20-11.39 267.07-11.39L267.07-11.39L267.07-11.39Q266.82-11.39 266.11-10.69L266.11-10.69L266.11-10.69Q264.19-8.58 261.73-6.18L261.73-6.18L261.73-6.18Q259.26-3.78 257.73-2.43L257.73-2.43L256.26-1.15L256.26-1.15Q253.76 0.77 252.42 0.77L252.42 0.77L252.42 0.77Q251.01 0.77 251.01-1.41L251.01-1.41L251.01-1.41Q251.01-2.50 251.62-4.74L251.62-4.74L251.62-4.74Q252.22-6.98 252.54-7.74L252.54-7.74L252.54-7.74Q254.02-11.33 256.22-14.72L256.22-14.72L256.22-14.72Q258.43-18.11 261.44-21.22L261.44-21.22L261.44-21.22Q264.45-24.32 268.45-26.24L268.45-26.24L268.45-26.24Q272.45-28.16 276.74-28.16L276.74-28.16L276.74-28.16Q280.32-28.16 280.32-27.07L280.32-27.07L280.32-27.07Q280.32-26.43 278.72-26.43L278.72-26.43L278.72-26.43Q272.83-26.43 267.68-21.41L267.68-21.41L267.68-21.41Q262.53-16.38 259.33-9.86L259.33-9.86L259.33-9.86Q258.43-8.06 258.43-6.85L258.43-6.85L258.43-6.85Q258.43-6.14 258.88-6.14L258.88-6.14L258.88-6.14Q259.65-6.14 260.86-7.23L260.86-7.23L260.86-7.23Q261.63-7.94 262.94-9.09L262.94-9.09L262.94-9.09Q264.26-10.24 267.20-13.50L267.20-13.50L267.20-13.50Q270.14-16.77 271.87-19.58L271.87-19.58L271.87-19.58Q272.13-20.10 272.67-20.80L272.67-20.80L272.67-20.80Q273.22-21.50 274.75-22.69L274.75-22.69L274.75-22.69Q276.29-23.87 277.82-23.87L277.82-23.87L277.82-23.87Q278.66-23.87 278.66-23.42L278.66-23.42L278.66-23.42Q278.66-23.30 278.46-22.98L278.46-22.98L278.46-22.98Q278.21-22.46 277.02-20.42L277.02-20.42L277.02-20.42Q275.84-18.37 274.82-16.54L274.82-16.54L274.82-16.54Q273.79-14.72 272.64-12.58L272.64-12.58L272.64-12.58Q271.49-10.43 270.82-8.90L270.82-8.90L270.82-8.90Q270.14-7.36 270.14-6.85L270.14-6.85L270.14-6.85Q270.14-6.46 270.46-6.46L270.46-6.46L270.46-6.46Q271.42-6.46 275.14-10.18L275.14-10.18L275.14-10.18Q277.95-13.12 281.73-17.41L281.73-17.41L281.73-17.41Q281.92-17.60 282.05-17.60L282.05-17.60L282.05-17.60Q282.18-17.60 282.18-17.34L282.18-17.34L282.18-17.34Q282.18-16.13 281.22-14.98L281.22-14.98L281.22-14.98Q274.94-8 270.59-4.03ZM290.75-7.30L290.75-7.30L290.75-7.30Q289.60-4.16 287.10-2.02L287.10-2.02L287.10-2.02Q284.61 0.13 282.46 0.90L282.46 0.90L282.46 0.90Q280.32 1.66 278.59 1.66L278.59 1.66L278.59 1.66Q273.92 1.66 273.92-1.98L273.92-1.98L273.92-1.98Q273.92-5.70 278.02-8.70L278.02-8.70L278.02-8.70Q279.94-10.11 282.18-10.56L282.18-10.56L282.18-10.56Q282.50-10.56 282.50-10.30L282.50-10.30L282.50-10.30Q282.50-10.18 282.37-10.05L282.37-10.05L282.37-10.05Q280.77-8.83 279.33-6.27L279.33-6.27L279.33-6.27Q277.89-3.71 277.89-1.79L277.89-1.79L277.89-1.79Q277.89 0.13 279.49 0.13L279.49 0.13L279.49 0.13Q280.77 0.13 282.02-0.93L282.02-0.93L282.02-0.93Q283.26-1.98 283.90-3.07L283.90-3.07L284.54-4.10L284.54-4.10Q285.82-6.14 286.69-10.62L286.69-10.62L286.69-10.62Q287.55-15.10 287.81-18.56L287.81-18.56L288-22.02L288-22.02Q288-22.53 287.81-22.53L287.81-22.53L287.55-22.40L281.22-14.98L281.22-14.98Q280.51-14.14 280.26-14.14L280.26-14.14L280.26-14.14Q279.94-14.14 279.94-14.59L279.94-14.59L279.94-14.59Q279.94-15.42 280.38-15.87L280.38-15.87L280.96-16.58L280.96-16.58Q288.26-24.77 289.28-26.50L289.28-26.50L289.28-26.50Q290.24-27.97 292.10-29.06L292.10-29.06L292.10-29.06Q293.89-30.08 296.32-30.08L296.32-30.08L296.32-30.08Q296.96-30.08 296.96-29.57L296.96-29.57L296.96-29.57Q296.96-29.25 296.45-28.99L296.45-28.99L296.45-28.99Q296.26-28.93 295.97-28.70L295.97-28.70L295.97-28.70Q295.68-28.48 294.94-27.65L294.94-27.65L294.94-27.65Q294.21-26.82 293.63-25.73L293.63-25.73L293.63-25.73Q293.06-24.64 292.61-22.69L292.61-22.69L292.61-22.69Q292.16-20.74 292.16-18.37L292.16-18.37L292.16-18.37Q292.16-11.01 290.75-7.30ZM311.74-4.03L311.74-4.03L311.74-4.03Q306.43 0.83 304.45 0.83L304.45 0.83L304.45 0.83Q303.55 0.83 303.55-0.19L303.55-0.19L303.55-0.19Q303.55-1.47 304.67-4.10L304.67-4.10L304.67-4.10Q305.79-6.72 306.94-8.70L306.94-8.70L308.10-10.69L308.10-10.69Q308.35-11.14 308.35-11.26L308.35-11.26L308.35-11.26Q308.35-11.39 308.22-11.39L308.22-11.39L308.22-11.39Q307.97-11.39 307.26-10.69L307.26-10.69L307.26-10.69Q305.34-8.58 302.88-6.18L302.88-6.18L302.88-6.18Q300.42-3.78 298.88-2.43L298.88-2.43L297.41-1.15L297.41-1.15Q294.91 0.77 293.57 0.77L293.57 0.77L293.57 0.77Q292.16 0.77 292.16-1.41L292.16-1.41L292.16-1.41Q292.16-2.50 292.77-4.74L292.77-4.74L292.77-4.74Q293.38-6.98 293.70-7.74L293.70-7.74L293.70-7.74Q295.17-11.33 297.38-14.72L297.38-14.72L297.38-14.72Q299.58-18.11 302.59-21.22L302.59-21.22L302.59-21.22Q305.60-24.32 309.60-26.24L309.60-26.24L309.60-26.24Q313.60-28.16 317.89-28.16L317.89-28.16L317.89-28.16Q321.47-28.16 321.47-27.07L321.47-27.07L321.47-27.07Q321.47-26.43 319.87-26.43L319.87-26.43L319.87-26.43Q313.98-26.43 308.83-21.41L308.83-21.41L308.83-21.41Q303.68-16.38 300.48-9.86L300.48-9.86L300.48-9.86Q299.58-8.06 299.58-6.85L299.58-6.85L299.58-6.85Q299.58-6.14 300.03-6.14L300.03-6.14L300.03-6.14Q300.80-6.14 302.02-7.23L302.02-7.23L302.02-7.23Q302.78-7.94 304.10-9.09L304.10-9.09L304.10-9.09Q305.41-10.24 308.35-13.50L308.35-13.50L308.35-13.50Q311.30-16.77 313.02-19.58L313.02-19.58L313.02-19.58Q313.28-20.10 313.82-20.80L313.82-20.80L313.82-20.80Q314.37-21.50 315.90-22.69L315.90-22.69L315.90-22.69Q317.44-23.87 318.98-23.87L318.98-23.87L318.98-23.87Q319.81-23.87 319.81-23.42L319.81-23.42L319.81-23.42Q319.81-23.30 319.62-22.98L319.62-22.98L319.62-22.98Q319.36-22.46 318.18-20.42L318.18-20.42L318.18-20.42Q316.99-18.37 315.97-16.54L315.97-16.54L315.97-16.54Q314.94-14.72 313.79-12.58L313.79-12.58L313.79-12.58Q312.64-10.43 311.97-8.90L311.97-8.90L311.97-8.90Q311.30-7.36 311.30-6.85L311.30-6.85L311.30-6.85Q311.30-6.46 311.62-6.46L311.62-6.46L311.62-6.46Q312.58-6.46 316.29-10.18L316.29-10.18L316.29-10.18Q319.10-13.12 322.88-17.41L322.88-17.41L322.88-17.41Q323.07-17.60 323.20-17.60L323.20-17.60L323.20-17.60Q323.33-17.60 323.33-17.34L323.33-17.34L323.33-17.34Q323.33-16.13 322.37-14.98L322.37-14.98L322.37-14.98Q316.10-8 311.74-4.03ZM338.24-6.21L338.24-6.21L338.24-6.21Q330.75 0.83 328.38 0.83L328.38 0.83L328.38 0.83Q327.30 0.83 327.30-0.32L327.30-0.32L327.30-0.32Q327.30-1.02 327.62-2.08L327.62-2.08L327.62-2.08Q327.94-3.14 328.42-4.19L328.42-4.19L328.42-4.19Q328.90-5.25 329.34-6.14L329.34-6.14L329.34-6.14Q329.79-7.04 330.24-7.81L330.24-7.81L330.24-7.81Q330.69-8.58 330.69-8.64L330.69-8.64L330.69-8.64Q331.65-10.37 333.57-13.47L333.57-13.47L333.57-13.47Q335.49-16.58 336.64-18.59L336.64-18.59L336.64-18.59Q337.79-20.61 337.79-21.06L337.79-21.06L337.79-21.06Q337.79-21.38 337.47-21.38L337.47-21.38L336.58-21.06L336.58-21.06Q333.63-18.94 329.54-14.50L329.54-14.50L329.54-14.50Q325.44-10.05 322.82-6.66L322.82-6.66L320.19-3.33L320.19-3.33Q319.36-2.11 318.72-1.34L318.72-1.34L318.72-1.34Q318.08-0.58 316.90 0.16L316.90 0.16L316.90 0.16Q315.71 0.90 314.50 0.90L314.50 0.90L314.50 0.90Q313.60 0.90 313.60 0.38L313.60 0.38L313.60 0.38Q313.60-0.13 314.82-2.59L314.82-2.59L314.82-2.59Q316.03-5.06 317.25-7.30L317.25-7.30L318.46-9.47L324.74-20.48L324.74-20.48Q325.70-22.08 326.30-22.94L326.30-22.94L326.30-22.94Q326.91-23.81 328-25.12L328-25.12L328-25.12Q329.09-26.43 330.34-27.07L330.34-27.07L330.34-27.07Q331.58-27.71 332.99-27.84L332.99-27.84L332.99-27.84Q333.50-27.84 333.50-27.39L333.50-27.39L333.50-27.39Q333.50-27.01 333.31-26.75L333.31-26.75L333.31-26.75Q331.84-24.45 328.80-19.14L328.80-19.14L328.80-19.14Q325.76-13.82 324.93-12.22L324.93-12.22L324.93-12.22Q324.74-11.84 324.74-11.65L324.74-11.65L324.74-11.65Q324.74-11.52 324.86-11.52L324.86-11.52L324.86-11.52Q324.99-11.52 325.50-11.90L325.50-11.90L325.50-11.90Q326.72-13.31 328.67-15.42L328.67-15.42L328.67-15.42Q330.62-17.54 335.30-21.79L335.30-21.79L335.30-21.79Q339.97-26.05 342.98-27.52L342.98-27.52L342.98-27.52Q343.68-27.84 344.32-27.84L344.32-27.84L344.32-27.84Q345.22-27.84 345.22-26.82L345.22-26.82L345.22-26.82Q344.70-23.81 340.29-16.51L340.29-16.51L340.29-16.51Q335.42-8.51 335.42-7.04L335.42-7.04L335.42-7.04Q335.42-6.53 335.87-6.53L335.87-6.53L335.87-6.53Q336.19-6.53 336.61-6.75L336.61-6.75L336.61-6.75Q337.02-6.98 337.54-7.39L337.54-7.39L337.54-7.39Q338.05-7.81 338.40-8.13L338.40-8.13L338.40-8.13Q338.75-8.45 339.33-8.99L339.33-8.99L339.33-8.99Q339.90-9.54 340.03-9.66L340.03-9.66L340.03-9.66Q342.72-12.35 347.14-17.41L347.14-17.41L347.14-17.41Q347.33-17.60 347.46-17.60L347.46-17.60L347.46-17.60Q347.58-17.60 347.58-17.34L347.58-17.34L347.58-17.34Q347.58-16.13 346.62-14.98L346.62-14.98L346.62-14.98Q341.89-9.73 338.24-6.21ZM364.42 1.73L364.42 1.73L364.42 1.73Q360.90 1.73 359.10 0L359.10 0L359.10 0Q357.31-1.73 357.31-4.80L357.31-4.80L357.44-6.21L357.44-6.21Q357.44-6.72 357.18-6.72L357.18-6.72L356.80-6.46L356.80-6.46Q355.26-3.90 353.60-1.76L353.60-1.76L353.60-1.76Q351.94 0.38 351.04 1.28L351.04 1.28L350.14 2.11L350.14 2.11Q349.25 2.94 348.80 2.94L348.80 2.94L348.80 2.94Q348.35 2.94 348.35 2.18L348.35 2.18L348.35 2.18Q348.35 1.15 348.99-0.32L348.99-0.32L348.99-0.32Q349.95-2.43 351.65-5.98L351.65-5.98L351.65-5.98Q353.34-9.54 358.43-18.59L358.43-18.59L358.43-18.59Q363.52-27.65 368.32-34.56L368.32-34.56L368.32-34.56Q373.18-41.60 375.87-44.16L375.87-44.16L375.87-44.16Q376.83-45.12 377.34-45.12L377.34-45.12L377.34-45.12Q377.66-45.12 377.66-44.61L377.66-44.61L377.66-44.61Q377.66-44.48 377.54-43.71L377.54-43.71L377.54-43.71Q376.96-41.15 372.99-34.30L372.99-34.30L372.99-34.30Q365.06-21.38 361.47-13.31L361.47-13.31L361.47-13.31Q359.10-8.77 359.10-4.93L359.10-4.93L359.10-4.93Q359.10-2.75 360.26-1.38L360.26-1.38L360.26-1.38Q361.41 0 363.46 0L363.46 0L363.46 0Q366.40 0 369.18-2.37L369.18-2.37L369.18-2.37Q371.97-4.74 373.82-8.06L373.82-8.06L373.82-8.06Q375.68-11.39 376.83-14.85L376.83-14.85L376.83-14.85Q377.98-18.30 377.98-20.67L377.98-20.67L377.98-20.67Q377.98-26.37 372.74-27.58L372.74-27.58L372.74-27.58Q372.67-27.84 372.67-28.10L372.67-28.10L372.67-28.10Q372.67-28.86 373.57-28.99L373.57-28.99L373.57-28.99Q378.50-28.99 382.34-32.67L382.34-32.67L382.34-32.67Q386.18-36.35 386.18-41.15L386.18-41.15L386.18-41.15Q386.18-43.84 384.19-45.92L384.19-45.92L384.19-45.92Q382.21-48 376.83-48L376.83-48L376.83-48Q371.01-48 367.42-44.80L367.42-44.80L367.42-44.80Q363.84-41.60 363.84-37.50L363.84-37.50L363.84-37.50Q363.84-36.35 364.29-35.39L364.29-35.39L364.29-35.39Q364.54-34.88 364.54-34.56L364.54-34.56L364.54-34.56Q364.54-34.18 364.16-34.18L364.16-34.18L364.16-34.18Q363.84-34.18 363.58-34.30L363.58-34.30L363.58-34.30Q363.14-34.50 362.50-34.82L362.50-34.82L362.50-34.82Q361.86-35.14 360.80-36.42L360.80-36.42L360.80-36.42Q359.74-37.70 359.74-39.23L359.74-39.23L359.74-39.23Q359.74-43.46 364.93-46.50L364.93-46.50L364.93-46.50Q370.11-49.54 377.47-49.54L377.47-49.54L377.47-49.54Q378.24-49.54 379.23-49.47L379.23-49.47L379.23-49.47Q380.22-49.41 382.46-48.90L382.46-48.90L382.46-48.90Q384.70-48.38 386.40-47.52L386.40-47.52L386.40-47.52Q388.10-46.66 389.44-44.80L389.44-44.80L389.44-44.80Q390.78-42.94 390.78-40.45L390.78-40.45L390.78-40.45Q390.78-37.82 389.54-35.62L389.54-35.62L389.54-35.62Q388.29-33.41 386.21-31.90L386.21-31.90L386.21-31.90Q384.13-30.40 381.86-29.44L381.86-29.44L381.86-29.44Q379.58-28.48 377.15-27.97L377.15-27.97L377.15-27.97Q376.70-27.78 376.70-27.58L376.70-27.58L376.70-27.58Q376.70-27.46 377.09-27.26L377.09-27.26L377.09-27.26Q377.28-27.14 377.66-26.94L377.66-26.94L377.66-26.94Q378.05-26.75 378.98-25.92L378.98-25.92L378.98-25.92Q379.90-25.09 380.64-24.10L380.64-24.10L380.64-24.10Q381.38-23.10 381.95-21.38L381.95-21.38L381.95-21.38Q382.53-19.65 382.53-17.73L382.53-17.73L382.53-17.73Q382.53-10.37 377.06-4.32L377.06-4.32L377.06-4.32Q371.58 1.73 364.42 1.73ZM404.35-9.66L404.35-9.66L404.35-9.66Q407.04-12.35 411.46-17.41L411.46-17.41L411.46-17.41Q411.65-17.60 411.78-17.60L411.78-17.60L411.78-17.60Q411.90-17.60 411.90-17.34L411.90-17.34L411.90-17.34Q411.90-16.13 410.94-14.98L410.94-14.98L410.94-14.98Q406.21-9.73 402.56-6.21L402.56-6.21L402.56-6.21Q394.88 0.90 392.45 0.90L392.45 0.90L392.45 0.90Q391.49 0.90 391.49-0.32L391.49-0.32L391.49-0.32Q391.49-2.62 394.11-7.33L394.11-7.33L394.11-7.33Q396.74-12.03 399.33-16.10L399.33-16.10L399.33-16.10Q401.92-20.16 401.92-20.86L401.92-20.86L401.92-20.86Q401.92-21.25 401.54-21.25L401.54-21.25L401.54-21.25Q400-21.25 395.71-16.51L395.71-16.51L395.71-16.51Q391.42-11.78 388.48-8L388.48-8L388.48-8Q385.22-3.90 382.82-1.47L382.82-1.47L382.82-1.47Q380.42 0.96 379.65 1.28L379.65 1.28L378.82 1.66L378.82 1.66Q378.24 1.66 378.24 1.02L378.24 1.02L378.24 1.02Q378.24 0 379.39-2.62L379.39-2.62L379.39-2.62Q380.54-5.25 381.70-7.36L381.70-7.36L382.85-9.47L392.83-27.39L392.83-27.39Q404.61-48.19 411.39-56.96L411.39-56.96L411.39-56.96Q413.31-59.52 414.08-59.52L414.08-59.52L414.08-59.52Q414.46-59.52 414.46-59.01L414.46-59.01L414.46-59.01Q414.46-57.66 412.42-53.50L412.42-53.50L412.42-53.50Q402.37-35.39 398.46-28.42L398.46-28.42L398.46-28.42Q396.10-24.19 394.18-20.90L394.18-20.90L394.18-20.90Q392.26-17.60 391.46-16.26L391.46-16.26L391.46-16.26Q390.66-14.91 390.08-13.92L390.08-13.92L390.08-13.92Q389.50-12.93 389.18-12.22L389.18-12.22L389.18-12.22Q389.12-12.03 389.12-11.84L389.12-11.84L389.12-11.84Q389.12-11.52 389.25-11.52L389.25-11.52L389.25-11.52Q389.38-11.52 389.76-11.90L389.76-11.90L389.76-11.90Q404.10-27.84 408.58-27.84L408.58-27.84L408.58-27.84Q409.47-27.84 409.47-26.94L409.47-26.94L409.47-26.94Q409.47-26.69 409.22-25.82L409.22-25.82L409.22-25.82Q408.96-24.96 407.74-22.34L407.74-22.34L407.74-22.34Q406.53-19.71 404.54-16.51L404.54-16.51L404.54-16.51Q403.33-14.72 401.47-11.39L401.47-11.39L401.47-11.39Q399.62-8.06 399.62-7.04L399.62-7.04L399.62-7.04Q399.62-6.46 400.19-6.46L400.19-6.46L400.19-6.46Q400.38-6.46 400.74-6.62L400.74-6.62L400.74-6.62Q401.09-6.78 401.54-7.17L401.54-7.17L401.54-7.17Q401.98-7.55 402.34-7.87L402.34-7.87L402.34-7.87Q402.69-8.19 403.36-8.80L403.36-8.80L403.36-8.80Q404.03-9.41 404.35-9.66ZM418.69-8.51L419.84-10.69L421.82-14.08L421.82-14.08Q421.82-14.27 421.70-14.27L421.70-14.27L421.70-14.27Q421.57-14.27 421.38-14.08L421.38-14.08L421.38-14.08Q419.01-11.33 416.45-8.74L416.45-8.74L416.45-8.74Q413.89-6.14 412.54-4.93L412.54-4.93L411.14-3.71L411.14-3.71Q406.14 1.02 404.22 1.02L404.22 1.02L404.22 1.02Q403.33 1.02 403.33-0.13L403.33-0.13L403.33-0.13Q403.33-1.41 404.38-4.03L404.38-4.03L404.38-4.03Q405.44-6.66 406.53-8.70L406.53-8.70L407.55-10.69L407.55-10.69Q412.93-20.74 415.49-24.13L415.49-24.13L415.49-24.13Q416.77-25.79 418.62-26.91L418.62-26.91L418.62-26.91Q420.48-28.03 421.50-28.03L421.50-28.03L421.50-28.03Q422.14-28.03 422.14-27.58L422.14-27.58L422.14-27.58Q422.14-27.33 421.89-26.88L421.89-26.88L421.89-26.88Q421.76-26.62 419.26-22.62L419.26-22.62L419.26-22.62Q416.77-18.62 415.23-15.74L415.23-15.74L415.23-15.74Q411.01-8 411.01-6.85L411.01-6.85L411.01-6.85Q411.01-6.40 411.39-6.40L411.39-6.40L411.39-6.40Q411.97-6.40 413.38-7.55L413.38-7.55L413.38-7.55Q417.54-11.14 422.53-17.22L422.53-17.22L422.53-17.22Q425.28-20.16 428.29-24.90L428.29-24.90L428.29-24.90Q430.34-28.03 433.73-28.03L433.73-28.03L433.73-28.03Q434.30-28.03 434.30-27.52L434.30-27.52L433.79-26.30L433.79-26.30Q432.90-24.70 429.79-19.30L429.79-19.30L429.79-19.30Q426.69-13.89 426.24-13.12L426.24-13.12L426.24-13.12Q423.62-8.51 423.62-7.04L423.62-7.04L423.62-7.04Q423.62-6.46 424.00-6.46L424.00-6.46L424.00-6.46Q424.64-6.46 428.10-9.66L428.10-9.66L428.10-9.66Q430.78-12.35 435.20-17.41L435.20-17.41L435.20-17.41Q435.39-17.60 435.52-17.60L435.52-17.60L435.52-17.60Q435.65-17.60 435.65-17.34L435.65-17.34L435.65-17.34Q435.65-16.13 434.69-14.98L434.69-14.98L434.69-14.98Q429.95-9.73 426.30-6.21L426.30-6.21L426.30-6.21Q423.81-3.84 420.70-1.47L420.70-1.47L420.70-1.47Q417.60 0.90 416.19 0.90L416.19 0.90L416.19 0.90Q415.23 0.90 415.23-0.45L415.23-0.45L415.23-0.45Q415.23-1.22 416.38-3.78L416.38-3.78L416.38-3.78Q417.54-6.34 418.69-8.51L418.69-8.51ZM437.95-6.21L437.95-6.21L437.95-6.21Q430.46 0.83 428.35 0.83L428.35 0.83L428.35 0.83Q427.26 0.83 427.26-0.64L427.26-0.64L427.26-0.64Q427.26-2.11 428.42-4.93L428.42-4.93L428.42-4.93Q429.57-7.74 430.72-9.86L430.72-9.86L431.87-11.90L431.87-11.90Q436.74-20.42 439.23-24.13L439.23-24.13L439.23-24.13Q440.32-25.73 442.02-26.85L442.02-26.85L442.02-26.85Q443.71-27.97 445.18-27.97L445.18-27.97L445.18-27.97Q445.70-27.97 445.70-27.52L445.70-27.52L445.70-27.52Q445.70-27.20 445.25-26.30L445.25-26.30L445.25-26.30Q444.48-24.90 441.47-19.58L441.47-19.58L441.47-19.58Q438.46-14.27 437.89-13.18L437.89-13.18L437.89-13.18Q435.26-8.58 435.26-7.04L435.26-7.04L435.26-7.04Q435.26-6.46 435.65-6.46L435.65-6.46L435.65-6.46Q436.29-6.46 439.74-9.66L439.74-9.66L439.74-9.66Q442.43-12.35 446.85-17.41L446.85-17.41L446.85-17.41Q447.04-17.60 447.17-17.60L447.17-17.60L447.17-17.60Q447.30-17.60 447.30-17.34L447.30-17.34L447.30-17.34Q447.30-16.13 446.34-14.98L446.34-14.98L446.34-14.98Q441.60-9.73 437.95-6.21ZM446.46-31.62L446.46-31.62L446.46-31.62Q444.86-31.62 444.86-33.54L444.86-33.54L444.86-33.54Q444.86-35.33 446.21-37.15L446.21-37.15L446.21-37.15Q447.55-38.98 449.15-38.98L449.15-38.98L449.15-38.98Q451.07-38.98 451.07-36.80L451.07-36.80L451.07-36.80Q451.07-35.01 449.60-33.31L449.60-33.31L449.60-33.31Q448.13-31.62 446.46-31.62ZM459.39-4.03L459.39-4.03L459.39-4.03Q454.08 0.83 452.10 0.83L452.10 0.83L452.10 0.83Q451.20 0.83 451.20-0.19L451.20-0.19L451.20-0.19Q451.20-1.47 452.32-4.10L452.32-4.10L452.32-4.10Q453.44-6.72 454.59-8.70L454.59-8.70L455.74-10.69L455.74-10.69Q456.00-11.14 456.00-11.26L456.00-11.26L456.00-11.26Q456.00-11.39 455.87-11.39L455.87-11.39L455.87-11.39Q455.62-11.39 454.91-10.69L454.91-10.69L454.91-10.69Q452.99-8.58 450.53-6.18L450.53-6.18L450.53-6.18Q448.06-3.78 446.53-2.43L446.53-2.43L445.06-1.15L445.06-1.15Q442.56 0.77 441.22 0.77L441.22 0.77L441.22 0.77Q439.81 0.77 439.81-1.41L439.81-1.41L439.81-1.41Q439.81-2.50 440.42-4.74L440.42-4.74L440.42-4.74Q441.02-6.98 441.34-7.74L441.34-7.74L441.34-7.74Q442.82-11.33 445.02-14.72L445.02-14.72L445.02-14.72Q447.23-18.11 450.24-21.22L450.24-21.22L450.24-21.22Q453.25-24.32 457.25-26.24L457.25-26.24L457.25-26.24Q461.25-28.16 465.54-28.16L465.54-28.16L465.54-28.16Q469.12-28.16 469.12-27.07L469.12-27.07L469.12-27.07Q469.12-26.43 467.52-26.43L467.52-26.43L467.52-26.43Q461.63-26.43 456.48-21.41L456.48-21.41L456.48-21.41Q451.33-16.38 448.13-9.86L448.13-9.86L448.13-9.86Q447.23-8.06 447.23-6.85L447.23-6.85L447.23-6.85Q447.23-6.14 447.68-6.14L447.68-6.14L447.68-6.14Q448.45-6.14 449.66-7.23L449.66-7.23L449.66-7.23Q450.43-7.94 451.74-9.09L451.74-9.09L451.74-9.09Q453.06-10.24 456.00-13.50L456.00-13.50L456.00-13.50Q458.94-16.77 460.67-19.58L460.67-19.58L460.67-19.58Q460.93-20.10 461.47-20.80L461.47-20.80L461.47-20.80Q462.02-21.50 463.55-22.69L463.55-22.69L463.55-22.69Q465.09-23.87 466.62-23.87L466.62-23.87L466.62-23.87Q467.46-23.87 467.46-23.42L467.46-23.42L467.46-23.42Q467.46-23.30 467.26-22.98L467.26-22.98L467.26-22.98Q467.01-22.46 465.82-20.42L465.82-20.42L465.82-20.42Q464.64-18.37 463.62-16.54L463.62-16.54L463.62-16.54Q462.59-14.72 461.44-12.58L461.44-12.58L461.44-12.58Q460.29-10.43 459.62-8.90L459.62-8.90L459.62-8.90Q458.94-7.36 458.94-6.85L458.94-6.85L458.94-6.85Q458.94-6.46 459.26-6.46L459.26-6.46L459.26-6.46Q460.22-6.46 463.94-10.18L463.94-10.18L463.94-10.18Q466.75-13.12 470.53-17.41L470.53-17.41L470.53-17.41Q470.72-17.60 470.85-17.60L470.85-17.60L470.85-17.60Q470.98-17.60 470.98-17.34L470.98-17.34L470.98-17.34Q470.98-16.13 470.02-14.98L470.02-14.98L470.02-14.98Q463.74-8 459.39-4.03Z" fill="url(#editing-gradow-gradient)"></path></g></g><style>text {
  font-size: 64px;
  font-family: Arial Black;
  dominant-baseline: central;
  text-anchor: middle;
}</style></svg>